<?xml version="1.0" standalone="no"?>
<!DOCTYPE svg PUBLIC "-//W3C//DTD SVG 20010904//EN"
 "http://www.w3.org/TR/2001/REC-SVG-20010904/DTD/svg10.dtd">
<svg version="1.0" xmlns="http://www.w3.org/2000/svg"
 width="512.000000pt" height="512.000000pt" viewBox="0 0 512.000000 512.000000"
 preserveAspectRatio="xMidYMid meet">

<g transform="translate(0.000000,512.000000) scale(0.100000,-0.100000)"
fill="#000000" stroke="none">
<path d="M188 4426 c-26 -7 -55 -19 -65 -26 -54 -41 -85 -80 -103 -127 -20
-53 -20 -79 -20 -1713 0 -1646 0 -1660 20 -1714 23 -60 77 -117 139 -144 33
-16 223 -17 2401 -17 2178 0 2368 1 2401 17 62 27 116 84 139 144 20 54 20 68
20 1714 0 1646 0 1660 -20 1714 -23 60 -77 117 -139 144 -33 16 -224 17 -2381
19 -1868 1 -2355 -1 -2392 -11z m4707 -171 c21 -8 39 -25 45 -40 12 -31 14
-1795 2 -1795 -4 0 -257 250 -562 556 -604 605 -602 604 -710 604 -117 0 -95
19 -895 -781 l-730 -729 -430 431 c-473 474 -479 479 -590 479 -108 -1 -117
-8 -502 -393 l-353 -352 0 977 c0 622 4 986 10 1003 22 58 -126 54 2378 55
1991 0 2307 -2 2337 -15z m-568 -1467 l623 -623 0 -617 c0 -384 -4 -627 -10
-643 -22 -58 91 -55 -1972 -55 l-1893 0 1280 1280 c1209 1209 1282 1280 1315
1280 32 0 73 -38 657 -622z m-2827 -413 l425 -425 -550 -550 -550 -550 -283 0
c-310 0 -343 5 -362 55 -6 16 -10 230 -10 558 l0 532 403 402 c221 221 413
406 427 411 14 5 35 6 50 0 14 -4 217 -200 450 -433z"/>
<path d="M2013 3825 c-197 -54 -348 -217 -384 -417 -44 -246 119 -498 370
-572 76 -22 204 -21 282 4 216 66 360 264 360 490 -1 144 -49 259 -152 360
-126 125 -315 178 -476 135z m263 -189 c64 -29 130 -94 164 -162 36 -71 40
-187 9 -269 -31 -82 -112 -163 -194 -194 -122 -46 -271 -14 -361 78 -185 189
-101 495 155 568 64 18 161 9 227 -21z"/>
</g>
</svg>
