<svg width="83" height="55" viewBox="0 0 83 55" fill="none" xmlns="http://www.w3.org/2000/svg">
<path d="M5.532 20.12C4.828 20.12 4.184 20.004 3.6 19.772C3.016 19.532 2.512 19.2 2.088 18.776C1.672 18.344 1.348 17.836 1.116 17.252C0.884 16.66 0.768 16.012 0.768 15.308C0.768 14.604 0.884 13.96 1.116 13.376C1.348 12.792 1.672 12.288 2.088 11.864C2.512 11.432 3.016 11.1 3.6 10.868C4.184 10.628 4.828 10.508 5.532 10.508C6.236 10.508 6.876 10.628 7.452 10.868C8.036 11.1 8.54 11.432 8.964 11.864C9.388 12.288 9.716 12.792 9.948 13.376C10.18 13.96 10.296 14.604 10.296 15.308C10.296 16.012 10.18 16.66 9.948 17.252C9.716 17.836 9.388 18.344 8.964 18.776C8.54 19.2 8.036 19.532 7.452 19.772C6.876 20.004 6.236 20.12 5.532 20.12ZM5.532 18.992C6.052 18.992 6.528 18.9 6.96 18.716C7.4 18.524 7.78 18.264 8.1 17.936C8.42 17.6 8.664 17.208 8.832 16.76C9.008 16.312 9.096 15.828 9.096 15.308C9.096 14.788 9.008 14.304 8.832 13.856C8.664 13.408 8.42 13.02 8.1 12.692C7.78 12.356 7.4 12.096 6.96 11.912C6.528 11.728 6.052 11.636 5.532 11.636C5.012 11.636 4.532 11.728 4.092 11.912C3.66 12.096 3.284 12.356 2.964 12.692C2.652 13.02 2.408 13.408 2.232 13.856C2.056 14.304 1.968 14.788 1.968 15.308C1.968 15.828 2.056 16.312 2.232 16.76C2.408 17.208 2.652 17.6 2.964 17.936C3.284 18.264 3.66 18.524 4.092 18.716C4.532 18.9 5.012 18.992 5.532 18.992ZM15.1548 20C14.9868 20 14.8388 19.94 14.7108 19.82C14.5908 19.7 14.5308 19.552 14.5308 19.376V11.252C14.5308 11.076 14.5908 10.928 14.7108 10.808C14.8388 10.688 14.9868 10.628 15.1548 10.628C15.3308 10.628 15.4788 10.688 15.5988 10.808C15.7188 10.928 15.7788 11.076 15.7788 11.252V14.852L19.7508 10.88C19.8468 10.784 19.9348 10.72 20.0148 10.688C20.0948 10.648 20.1788 10.628 20.2668 10.628C20.4668 10.628 20.6108 10.688 20.6988 10.808C20.7868 10.928 20.8188 11.072 20.7948 11.24C20.7708 11.4 20.6948 11.548 20.5668 11.684L17.5068 14.756L20.6268 19.004C20.7228 19.14 20.7628 19.288 20.7468 19.448C20.7308 19.6 20.6748 19.732 20.5788 19.844C20.4828 19.948 20.3548 20 20.1948 20C19.9708 20 19.7988 19.912 19.6788 19.736L16.6428 15.62L15.7788 16.484V19.376C15.7788 19.552 15.7188 19.7 15.5988 19.82C15.4788 19.94 15.3308 20 15.1548 20ZM27.4274 20.12C26.9154 20.12 26.4274 20.04 25.9634 19.88C25.4994 19.72 25.0954 19.496 24.7514 19.208C24.4074 18.92 24.1554 18.588 23.9954 18.212C23.9154 18.044 23.9154 17.888 23.9954 17.744C24.0834 17.6 24.2274 17.508 24.4274 17.468C24.5714 17.436 24.7114 17.46 24.8474 17.54C24.9914 17.612 25.0994 17.724 25.1714 17.876C25.2674 18.076 25.4234 18.26 25.6394 18.428C25.8634 18.596 26.1314 18.732 26.4434 18.836C26.7554 18.94 27.0834 18.992 27.4274 18.992C27.8114 18.992 28.1634 18.932 28.4834 18.812C28.8114 18.692 29.0754 18.52 29.2754 18.296C29.4754 18.064 29.5754 17.78 29.5754 17.444C29.5754 17.02 29.4074 16.64 29.0714 16.304C28.7434 15.968 28.1994 15.76 27.4394 15.68C26.4474 15.584 25.6674 15.292 25.0994 14.804C24.5314 14.316 24.2474 13.712 24.2474 12.992C24.2474 12.464 24.3954 12.016 24.6914 11.648C24.9874 11.28 25.3874 11 25.8914 10.808C26.4034 10.616 26.9714 10.52 27.5954 10.52C28.0834 10.52 28.5074 10.588 28.8674 10.724C29.2354 10.86 29.5554 11.048 29.8274 11.288C30.0994 11.528 30.3354 11.812 30.5354 12.14C30.6474 12.316 30.6914 12.484 30.6674 12.644C30.6514 12.796 30.5754 12.916 30.4394 13.004C30.2874 13.1 30.1234 13.12 29.9474 13.064C29.7714 13.008 29.6394 12.904 29.5514 12.752C29.4234 12.52 29.2674 12.324 29.0834 12.164C28.8994 12.004 28.6834 11.88 28.4354 11.792C28.1874 11.696 27.8954 11.648 27.5594 11.648C26.9674 11.64 26.4714 11.752 26.0714 11.984C25.6714 12.208 25.4714 12.556 25.4714 13.028C25.4714 13.268 25.5314 13.5 25.6514 13.724C25.7794 13.94 26.0074 14.128 26.3354 14.288C26.6714 14.448 27.1514 14.56 27.7754 14.624C28.7274 14.72 29.4674 15.012 29.9954 15.5C30.5314 15.98 30.7994 16.616 30.7994 17.408C30.7994 17.864 30.7034 18.26 30.5114 18.596C30.3274 18.932 30.0754 19.216 29.7554 19.448C29.4434 19.672 29.0834 19.84 28.6754 19.952C28.2754 20.064 27.8594 20.12 27.4274 20.12ZM34.6211 20C34.3971 20 34.2251 19.904 34.1051 19.712C33.9851 19.52 33.9731 19.316 34.0691 19.1L37.4411 11.048C37.5611 10.768 37.7571 10.628 38.0291 10.628C38.3171 10.628 38.5131 10.768 38.6171 11.048L42.0011 19.124C42.0891 19.348 42.0731 19.552 41.9531 19.736C41.8411 19.912 41.6691 20 41.4371 20C41.3171 20 41.2011 19.968 41.0891 19.904C40.9851 19.832 40.9091 19.736 40.8611 19.616L37.8851 12.224H38.2211L35.1971 19.616C35.1411 19.744 35.0571 19.84 34.9451 19.904C34.8411 19.968 34.7331 20 34.6211 20ZM35.2571 17.936L35.7371 16.904H40.4411L40.9211 17.936H35.2571ZM46.3226 20C46.1466 20 45.9986 19.94 45.8786 19.82C45.7666 19.7 45.7106 19.552 45.7106 19.376V11.252C45.7106 11.068 45.7666 10.92 45.8786 10.808C45.9986 10.688 46.1466 10.628 46.3226 10.628C46.5146 10.628 46.6746 10.704 46.8026 10.856L52.0346 17.816V11.252C52.0346 11.068 52.0946 10.92 52.2146 10.808C52.3346 10.688 52.4826 10.628 52.6586 10.628C52.8426 10.628 52.9906 10.688 53.1026 10.808C53.2146 10.92 53.2706 11.068 53.2706 11.252V19.376C53.2706 19.552 53.2146 19.7 53.1026 19.82C52.9906 19.94 52.8426 20 52.6586 20C52.5786 20 52.4906 19.984 52.3946 19.952C52.3066 19.912 52.2346 19.856 52.1786 19.784L46.9466 12.824V19.376C46.9466 19.552 46.8866 19.7 46.7666 19.82C46.6546 19.94 46.5066 20 46.3226 20ZM57.5796 20C57.3556 20 57.1836 19.904 57.0636 19.712C56.9436 19.52 56.9316 19.316 57.0276 19.1L60.3996 11.048C60.5196 10.768 60.7156 10.628 60.9876 10.628C61.2756 10.628 61.4716 10.768 61.5756 11.048L64.9596 19.124C65.0476 19.348 65.0316 19.552 64.9116 19.736C64.7996 19.912 64.6276 20 64.3956 20C64.2756 20 64.1596 19.968 64.0476 19.904C63.9436 19.832 63.8676 19.736 63.8196 19.616L60.8436 12.224H61.1796L58.1556 19.616C58.0996 19.744 58.0156 19.84 57.9036 19.904C57.7996 19.968 57.6916 20 57.5796 20ZM58.2156 17.936L58.6956 16.904H63.3996L63.8796 17.936H58.2156ZM1.824 41C1.648 41 1.5 40.94 1.38 40.82C1.26 40.7 1.2 40.552 1.2 40.376V32.252C1.2 32.068 1.26 31.92 1.38 31.808C1.5 31.688 1.648 31.628 1.824 31.628H4.224C4.824 31.628 5.356 31.76 5.82 32.024C6.284 32.288 6.644 32.656 6.9 33.128C7.164 33.592 7.296 34.128 7.296 34.736C7.296 35.32 7.164 35.84 6.9 36.296C6.644 36.752 6.284 37.108 5.82 37.364C5.356 37.62 4.824 37.748 4.224 37.748H2.448V40.376C2.448 40.552 2.388 40.7 2.268 40.82C2.156 40.94 2.008 41 1.824 41ZM2.448 36.596H4.224C4.592 36.596 4.916 36.516 5.196 36.356C5.476 36.196 5.696 35.976 5.856 35.696C6.016 35.416 6.096 35.096 6.096 34.736C6.096 34.352 6.016 34.016 5.856 33.728C5.696 33.432 5.476 33.2 5.196 33.032C4.916 32.864 4.592 32.78 4.224 32.78H2.448V36.596ZM10.2213 41C9.99728 41 9.82528 40.904 9.70528 40.712C9.58528 40.52 9.57328 40.316 9.66928 40.1L13.0413 32.048C13.1613 31.768 13.3573 31.628 13.6293 31.628C13.9173 31.628 14.1133 31.768 14.2173 32.048L17.6013 40.124C17.6893 40.348 17.6733 40.552 17.5533 40.736C17.4413 40.912 17.2693 41 17.0373 41C16.9173 41 16.8013 40.968 16.6893 40.904C16.5853 40.832 16.5093 40.736 16.4613 40.616L13.4853 33.224H13.8213L10.7973 40.616C10.7413 40.744 10.6573 40.84 10.5453 40.904C10.4413 40.968 10.3333 41 10.2213 41ZM10.8573 38.936L11.3373 37.904H16.0413L16.5213 38.936H10.8573ZM23.5658 41C23.3098 41 23.1218 40.868 23.0018 40.604L19.4858 32.564C19.3738 32.292 19.3618 32.068 19.4498 31.892C19.5378 31.716 19.7058 31.628 19.9538 31.628C20.2338 31.628 20.4258 31.752 20.5298 32L23.6138 39.404H23.4818L26.6258 32C26.6898 31.856 26.7618 31.76 26.8418 31.712C26.9298 31.656 27.0458 31.628 27.1898 31.628C27.4298 31.628 27.5938 31.716 27.6818 31.892C27.7778 32.06 27.7778 32.248 27.6818 32.456L24.1298 40.604C24.0738 40.732 23.9978 40.832 23.9018 40.904C23.8138 40.968 23.7018 41 23.5658 41ZM32.0895 41C31.9135 41 31.7655 40.94 31.6455 40.82C31.5335 40.7 31.4775 40.552 31.4775 40.376V32.252C31.4775 32.076 31.5375 31.928 31.6575 31.808C31.7775 31.688 31.9215 31.628 32.0895 31.628C32.2655 31.628 32.4135 31.688 32.5335 31.808C32.6535 31.928 32.7135 32.076 32.7135 32.252V39.752H37.0575C37.2335 39.752 37.3815 39.812 37.5015 39.932C37.6215 40.052 37.6815 40.2 37.6815 40.376C37.6815 40.552 37.6215 40.7 37.5015 40.82C37.3815 40.94 37.2335 41 37.0575 41H32.0895ZM42.7061 41C42.5381 41 42.3941 40.94 42.2741 40.82C42.1541 40.7 42.0941 40.552 42.0941 40.376V37.58L38.8901 32.6C38.7861 32.432 38.7461 32.276 38.7701 32.132C38.7941 31.98 38.8621 31.86 38.9741 31.772C39.0941 31.676 39.2301 31.628 39.3821 31.628C39.5181 31.628 39.6261 31.66 39.7061 31.724C39.7861 31.78 39.8621 31.864 39.9341 31.976L42.9821 36.812H42.5021L45.5981 31.928C45.6621 31.832 45.7381 31.76 45.8261 31.712C45.9141 31.656 46.0221 31.628 46.1501 31.628C46.2941 31.628 46.4141 31.68 46.5101 31.784C46.6061 31.88 46.6621 32.004 46.6781 32.156C46.6941 32.3 46.6541 32.448 46.5581 32.6L43.3301 37.58V40.376C43.3301 40.552 43.2701 40.7 43.1501 40.82C43.0301 40.94 42.8821 41 42.7061 41ZM54.1412 41.192C53.3732 41.192 52.6932 41.052 52.1012 40.772C51.5092 40.484 51.0452 40.088 50.7092 39.584C50.3812 39.08 50.2172 38.504 50.2172 37.856V32.252C50.2172 32.068 50.2772 31.92 50.3972 31.808C50.5172 31.688 50.6652 31.628 50.8412 31.628C51.0252 31.628 51.1732 31.688 51.2852 31.808C51.4052 31.92 51.4652 32.068 51.4652 32.252V37.856C51.4652 38.288 51.5772 38.672 51.8012 39.008C52.0332 39.336 52.3492 39.596 52.7492 39.788C53.1572 39.972 53.6212 40.064 54.1412 40.064C54.6452 40.064 55.0892 39.972 55.4732 39.788C55.8652 39.596 56.1692 39.336 56.3852 39.008C56.6092 38.672 56.7212 38.288 56.7212 37.856V32.252C56.7212 32.068 56.7812 31.92 56.9012 31.808C57.0212 31.688 57.1692 31.628 57.3452 31.628C57.5292 31.628 57.6772 31.688 57.7892 31.808C57.9012 31.92 57.9572 32.068 57.9572 32.252V37.856C57.9572 38.504 57.7932 39.08 57.4652 39.584C57.1452 40.088 56.6972 40.484 56.1212 40.772C55.5452 41.052 54.8852 41.192 54.1412 41.192ZM63.2579 41C63.0899 41 62.9419 40.94 62.8139 40.82C62.6939 40.7 62.6339 40.552 62.6339 40.376V32.252C62.6339 32.076 62.6939 31.928 62.8139 31.808C62.9419 31.688 63.0899 31.628 63.2579 31.628C63.4339 31.628 63.5819 31.688 63.7019 31.808C63.8219 31.928 63.8819 32.076 63.8819 32.252V35.852L67.8539 31.88C67.9499 31.784 68.0379 31.72 68.1179 31.688C68.1979 31.648 68.2819 31.628 68.3699 31.628C68.5699 31.628 68.7139 31.688 68.8019 31.808C68.8899 31.928 68.9219 32.072 68.8979 32.24C68.8739 32.4 68.7979 32.548 68.6699 32.684L65.6099 35.756L68.7299 40.004C68.8259 40.14 68.8659 40.288 68.8499 40.448C68.8339 40.6 68.7779 40.732 68.6819 40.844C68.5859 40.948 68.4579 41 68.2979 41C68.0739 41 67.9019 40.912 67.7819 40.736L64.7459 36.62L63.8819 37.484V40.376C63.8819 40.552 63.8219 40.7 63.7019 40.82C63.5819 40.94 63.4339 41 63.2579 41Z" fill="black"/>
<g clip-path="url(#clip0_705_4)">
<rect x="28" width="50" height="50" rx="25" fill="black"/>
<path d="M5.532 20.12C4.828 20.12 4.184 20.004 3.6 19.772C3.016 19.532 2.512 19.2 2.088 18.776C1.672 18.344 1.348 17.836 1.116 17.252C0.884 16.66 0.768 16.012 0.768 15.308C0.768 14.604 0.884 13.96 1.116 13.376C1.348 12.792 1.672 12.288 2.088 11.864C2.512 11.432 3.016 11.1 3.6 10.868C4.184 10.628 4.828 10.508 5.532 10.508C6.236 10.508 6.876 10.628 7.452 10.868C8.036 11.1 8.54 11.432 8.964 11.864C9.388 12.288 9.716 12.792 9.948 13.376C10.18 13.96 10.296 14.604 10.296 15.308C10.296 16.012 10.18 16.66 9.948 17.252C9.716 17.836 9.388 18.344 8.964 18.776C8.54 19.2 8.036 19.532 7.452 19.772C6.876 20.004 6.236 20.12 5.532 20.12ZM5.532 18.992C6.052 18.992 6.528 18.9 6.96 18.716C7.4 18.524 7.78 18.264 8.1 17.936C8.42 17.6 8.664 17.208 8.832 16.76C9.008 16.312 9.096 15.828 9.096 15.308C9.096 14.788 9.008 14.304 8.832 13.856C8.664 13.408 8.42 13.02 8.1 12.692C7.78 12.356 7.4 12.096 6.96 11.912C6.528 11.728 6.052 11.636 5.532 11.636C5.012 11.636 4.532 11.728 4.092 11.912C3.66 12.096 3.284 12.356 2.964 12.692C2.652 13.02 2.408 13.408 2.232 13.856C2.056 14.304 1.968 14.788 1.968 15.308C1.968 15.828 2.056 16.312 2.232 16.76C2.408 17.208 2.652 17.6 2.964 17.936C3.284 18.264 3.66 18.524 4.092 18.716C4.532 18.9 5.012 18.992 5.532 18.992ZM15.1548 20C14.9868 20 14.8388 19.94 14.7108 19.82C14.5908 19.7 14.5308 19.552 14.5308 19.376V11.252C14.5308 11.076 14.5908 10.928 14.7108 10.808C14.8388 10.688 14.9868 10.628 15.1548 10.628C15.3308 10.628 15.4788 10.688 15.5988 10.808C15.7188 10.928 15.7788 11.076 15.7788 11.252V14.852L19.7508 10.88C19.8468 10.784 19.9348 10.72 20.0148 10.688C20.0948 10.648 20.1788 10.628 20.2668 10.628C20.4668 10.628 20.6108 10.688 20.6988 10.808C20.7868 10.928 20.8188 11.072 20.7948 11.24C20.7708 11.4 20.6948 11.548 20.5668 11.684L17.5068 14.756L20.6268 19.004C20.7228 19.14 20.7628 19.288 20.7468 19.448C20.7308 19.6 20.6748 19.732 20.5788 19.844C20.4828 19.948 20.3548 20 20.1948 20C19.9708 20 19.7988 19.912 19.6788 19.736L16.6428 15.62L15.7788 16.484V19.376C15.7788 19.552 15.7188 19.7 15.5988 19.82C15.4788 19.94 15.3308 20 15.1548 20ZM27.4274 20.12C26.9154 20.12 26.4274 20.04 25.9634 19.88C25.4994 19.72 25.0954 19.496 24.7514 19.208C24.4074 18.92 24.1554 18.588 23.9954 18.212C23.9154 18.044 23.9154 17.888 23.9954 17.744C24.0834 17.6 24.2274 17.508 24.4274 17.468C24.5714 17.436 24.7114 17.46 24.8474 17.54C24.9914 17.612 25.0994 17.724 25.1714 17.876C25.2674 18.076 25.4234 18.26 25.6394 18.428C25.8634 18.596 26.1314 18.732 26.4434 18.836C26.7554 18.94 27.0834 18.992 27.4274 18.992C27.8114 18.992 28.1634 18.932 28.4834 18.812C28.8114 18.692 29.0754 18.52 29.2754 18.296C29.4754 18.064 29.5754 17.78 29.5754 17.444C29.5754 17.02 29.4074 16.64 29.0714 16.304C28.7434 15.968 28.1994 15.76 27.4394 15.68C26.4474 15.584 25.6674 15.292 25.0994 14.804C24.5314 14.316 24.2474 13.712 24.2474 12.992C24.2474 12.464 24.3954 12.016 24.6914 11.648C24.9874 11.28 25.3874 11 25.8914 10.808C26.4034 10.616 26.9714 10.52 27.5954 10.52C28.0834 10.52 28.5074 10.588 28.8674 10.724C29.2354 10.86 29.5554 11.048 29.8274 11.288C30.0994 11.528 30.3354 11.812 30.5354 12.14C30.6474 12.316 30.6914 12.484 30.6674 12.644C30.6514 12.796 30.5754 12.916 30.4394 13.004C30.2874 13.1 30.1234 13.12 29.9474 13.064C29.7714 13.008 29.6394 12.904 29.5514 12.752C29.4234 12.52 29.2674 12.324 29.0834 12.164C28.8994 12.004 28.6834 11.88 28.4354 11.792C28.1874 11.696 27.8954 11.648 27.5594 11.648C26.9674 11.64 26.4714 11.752 26.0714 11.984C25.6714 12.208 25.4714 12.556 25.4714 13.028C25.4714 13.268 25.5314 13.5 25.6514 13.724C25.7794 13.94 26.0074 14.128 26.3354 14.288C26.6714 14.448 27.1514 14.56 27.7754 14.624C28.7274 14.72 29.4674 15.012 29.9954 15.5C30.5314 15.98 30.7994 16.616 30.7994 17.408C30.7994 17.864 30.7034 18.26 30.5114 18.596C30.3274 18.932 30.0754 19.216 29.7554 19.448C29.4434 19.672 29.0834 19.84 28.6754 19.952C28.2754 20.064 27.8594 20.12 27.4274 20.12ZM34.6211 20C34.3971 20 34.2251 19.904 34.1051 19.712C33.9851 19.52 33.9731 19.316 34.0691 19.1L37.4411 11.048C37.5611 10.768 37.7571 10.628 38.0291 10.628C38.3171 10.628 38.5131 10.768 38.6171 11.048L42.0011 19.124C42.0891 19.348 42.0731 19.552 41.9531 19.736C41.8411 19.912 41.6691 20 41.4371 20C41.3171 20 41.2011 19.968 41.0891 19.904C40.9851 19.832 40.9091 19.736 40.8611 19.616L37.8851 12.224H38.2211L35.1971 19.616C35.1411 19.744 35.0571 19.84 34.9451 19.904C34.8411 19.968 34.7331 20 34.6211 20ZM35.2571 17.936L35.7371 16.904H40.4411L40.9211 17.936H35.2571ZM46.3226 20C46.1466 20 45.9986 19.94 45.8786 19.82C45.7666 19.7 45.7106 19.552 45.7106 19.376V11.252C45.7106 11.068 45.7666 10.92 45.8786 10.808C45.9986 10.688 46.1466 10.628 46.3226 10.628C46.5146 10.628 46.6746 10.704 46.8026 10.856L52.0346 17.816V11.252C52.0346 11.068 52.0946 10.92 52.2146 10.808C52.3346 10.688 52.4826 10.628 52.6586 10.628C52.8426 10.628 52.9906 10.688 53.1026 10.808C53.2146 10.92 53.2706 11.068 53.2706 11.252V19.376C53.2706 19.552 53.2146 19.7 53.1026 19.82C52.9906 19.94 52.8426 20 52.6586 20C52.5786 20 52.4906 19.984 52.3946 19.952C52.3066 19.912 52.2346 19.856 52.1786 19.784L46.9466 12.824V19.376C46.9466 19.552 46.8866 19.7 46.7666 19.82C46.6546 19.94 46.5066 20 46.3226 20ZM57.5796 20C57.3556 20 57.1836 19.904 57.0636 19.712C56.9436 19.52 56.9316 19.316 57.0276 19.1L60.3996 11.048C60.5196 10.768 60.7156 10.628 60.9876 10.628C61.2756 10.628 61.4716 10.768 61.5756 11.048L64.9596 19.124C65.0476 19.348 65.0316 19.552 64.9116 19.736C64.7996 19.912 64.6276 20 64.3956 20C64.2756 20 64.1596 19.968 64.0476 19.904C63.9436 19.832 63.8676 19.736 63.8196 19.616L60.8436 12.224H61.1796L58.1556 19.616C58.0996 19.744 58.0156 19.84 57.9036 19.904C57.7996 19.968 57.6916 20 57.5796 20ZM58.2156 17.936L58.6956 16.904H63.3996L63.8796 17.936H58.2156ZM1.824 41C1.648 41 1.5 40.94 1.38 40.82C1.26 40.7 1.2 40.552 1.2 40.376V32.252C1.2 32.068 1.26 31.92 1.38 31.808C1.5 31.688 1.648 31.628 1.824 31.628H4.224C4.824 31.628 5.356 31.76 5.82 32.024C6.284 32.288 6.644 32.656 6.9 33.128C7.164 33.592 7.296 34.128 7.296 34.736C7.296 35.32 7.164 35.84 6.9 36.296C6.644 36.752 6.284 37.108 5.82 37.364C5.356 37.62 4.824 37.748 4.224 37.748H2.448V40.376C2.448 40.552 2.388 40.7 2.268 40.82C2.156 40.94 2.008 41 1.824 41ZM2.448 36.596H4.224C4.592 36.596 4.916 36.516 5.196 36.356C5.476 36.196 5.696 35.976 5.856 35.696C6.016 35.416 6.096 35.096 6.096 34.736C6.096 34.352 6.016 34.016 5.856 33.728C5.696 33.432 5.476 33.2 5.196 33.032C4.916 32.864 4.592 32.78 4.224 32.78H2.448V36.596ZM10.2213 41C9.99728 41 9.82528 40.904 9.70528 40.712C9.58528 40.52 9.57328 40.316 9.66928 40.1L13.0413 32.048C13.1613 31.768 13.3573 31.628 13.6293 31.628C13.9173 31.628 14.1133 31.768 14.2173 32.048L17.6013 40.124C17.6893 40.348 17.6733 40.552 17.5533 40.736C17.4413 40.912 17.2693 41 17.0373 41C16.9173 41 16.8013 40.968 16.6893 40.904C16.5853 40.832 16.5093 40.736 16.4613 40.616L13.4853 33.224H13.8213L10.7973 40.616C10.7413 40.744 10.6573 40.84 10.5453 40.904C10.4413 40.968 10.3333 41 10.2213 41ZM10.8573 38.936L11.3373 37.904H16.0413L16.5213 38.936H10.8573ZM23.5658 41C23.3098 41 23.1218 40.868 23.0018 40.604L19.4858 32.564C19.3738 32.292 19.3618 32.068 19.4498 31.892C19.5378 31.716 19.7058 31.628 19.9538 31.628C20.2338 31.628 20.4258 31.752 20.5298 32L23.6138 39.404H23.4818L26.6258 32C26.6898 31.856 26.7618 31.76 26.8418 31.712C26.9298 31.656 27.0458 31.628 27.1898 31.628C27.4298 31.628 27.5938 31.716 27.6818 31.892C27.7778 32.06 27.7778 32.248 27.6818 32.456L24.1298 40.604C24.0738 40.732 23.9978 40.832 23.9018 40.904C23.8138 40.968 23.7018 41 23.5658 41ZM32.0895 41C31.9135 41 31.7655 40.94 31.6455 40.82C31.5335 40.7 31.4775 40.552 31.4775 40.376V32.252C31.4775 32.076 31.5375 31.928 31.6575 31.808C31.7775 31.688 31.9215 31.628 32.0895 31.628C32.2655 31.628 32.4135 31.688 32.5335 31.808C32.6535 31.928 32.7135 32.076 32.7135 32.252V39.752H37.0575C37.2335 39.752 37.3815 39.812 37.5015 39.932C37.6215 40.052 37.6815 40.2 37.6815 40.376C37.6815 40.552 37.6215 40.7 37.5015 40.82C37.3815 40.94 37.2335 41 37.0575 41H32.0895ZM42.7061 41C42.5381 41 42.3941 40.94 42.2741 40.82C42.1541 40.7 42.0941 40.552 42.0941 40.376V37.58L38.8901 32.6C38.7861 32.432 38.7461 32.276 38.7701 32.132C38.7941 31.98 38.8621 31.86 38.9741 31.772C39.0941 31.676 39.2301 31.628 39.3821 31.628C39.5181 31.628 39.6261 31.66 39.7061 31.724C39.7861 31.78 39.8621 31.864 39.9341 31.976L42.9821 36.812H42.5021L45.5981 31.928C45.6621 31.832 45.7381 31.76 45.8261 31.712C45.9141 31.656 46.0221 31.628 46.1501 31.628C46.2941 31.628 46.4141 31.68 46.5101 31.784C46.6061 31.88 46.6621 32.004 46.6781 32.156C46.6941 32.3 46.6541 32.448 46.5581 32.6L43.3301 37.58V40.376C43.3301 40.552 43.2701 40.7 43.1501 40.82C43.0301 40.94 42.8821 41 42.7061 41ZM54.1412 41.192C53.3732 41.192 52.6932 41.052 52.1012 40.772C51.5092 40.484 51.0452 40.088 50.7092 39.584C50.3812 39.08 50.2172 38.504 50.2172 37.856V32.252C50.2172 32.068 50.2772 31.92 50.3972 31.808C50.5172 31.688 50.6652 31.628 50.8412 31.628C51.0252 31.628 51.1732 31.688 51.2852 31.808C51.4052 31.92 51.4652 32.068 51.4652 32.252V37.856C51.4652 38.288 51.5772 38.672 51.8012 39.008C52.0332 39.336 52.3492 39.596 52.7492 39.788C53.1572 39.972 53.6212 40.064 54.1412 40.064C54.6452 40.064 55.0892 39.972 55.4732 39.788C55.8652 39.596 56.1692 39.336 56.3852 39.008C56.6092 38.672 56.7212 38.288 56.7212 37.856V32.252C56.7212 32.068 56.7812 31.92 56.9012 31.808C57.0212 31.688 57.1692 31.628 57.3452 31.628C57.5292 31.628 57.6772 31.688 57.7892 31.808C57.9012 31.92 57.9572 32.068 57.9572 32.252V37.856C57.9572 38.504 57.7932 39.08 57.4652 39.584C57.1452 40.088 56.6972 40.484 56.1212 40.772C55.5452 41.052 54.8852 41.192 54.1412 41.192ZM63.2579 41C63.0899 41 62.9419 40.94 62.8139 40.82C62.6939 40.7 62.6339 40.552 62.6339 40.376V32.252C62.6339 32.076 62.6939 31.928 62.8139 31.808C62.9419 31.688 63.0899 31.628 63.2579 31.628C63.4339 31.628 63.5819 31.688 63.7019 31.808C63.8219 31.928 63.8819 32.076 63.8819 32.252V35.852L67.8539 31.88C67.9499 31.784 68.0379 31.72 68.1179 31.688C68.1979 31.648 68.2819 31.628 68.3699 31.628C68.5699 31.628 68.7139 31.688 68.8019 31.808C68.8899 31.928 68.9219 32.072 68.8979 32.24C68.8739 32.4 68.7979 32.548 68.6699 32.684L65.6099 35.756L68.7299 40.004C68.8259 40.14 68.8659 40.288 68.8499 40.448C68.8339 40.6 68.7779 40.732 68.6819 40.844C68.5859 40.948 68.4579 41 68.2979 41C68.0739 41 67.9019 40.912 67.7819 40.736L64.7459 36.62L63.8819 37.484V40.376C63.8819 40.552 63.8219 40.7 63.7019 40.82C63.5819 40.94 63.4339 41 63.2579 41Z" fill="white"/>
</g>
<defs>
<clipPath id="clip0_705_4">
<rect x="28" width="50" height="50" rx="25" fill="white"/>
</clipPath>
</defs>
</svg>
