<?xml version="1.0" standalone="no"?>
<!DOCTYPE svg PUBLIC "-//W3C//DTD SVG 20010904//EN"
 "http://www.w3.org/TR/2001/REC-SVG-20010904/DTD/svg10.dtd">
<svg version="1.0" xmlns="http://www.w3.org/2000/svg"
 width="512.000000pt" height="512.000000pt" viewBox="0 0 512.000000 512.000000"
 preserveAspectRatio="xMidYMid meet">

<g transform="translate(0.000000,512.000000) scale(0.100000,-0.100000)"
fill="#000000" stroke="none">
<path d="M381 3054 c-216 -58 -381 -271 -381 -494 0 -177 113 -366 269 -449
200 -106 441 -71 599 87 104 104 152 219 152 362 0 143 -48 258 -152 362 -125
125 -318 178 -487 132z"/>
<path d="M2433 3055 c-179 -48 -321 -193 -368 -372 -69 -266 100 -547 372
-618 266 -69 547 100 618 372 69 266 -100 547 -372 618 -71 19 -181 18 -250 0z"/>
<path d="M4485 3056 c-171 -43 -326 -195 -370 -363 -46 -178 5 -363 137 -495
244 -244 657 -175 810 134 78 157 78 299 0 456 -104 211 -349 325 -577 268z"/>
</g>
</svg>
