<?xml version="1.0" standalone="no"?>
<!DOCTYPE svg PUBLIC "-//W3C//DTD SVG 20010904//EN"
 "http://www.w3.org/TR/2001/REC-SVG-20010904/DTD/svg10.dtd">
<svg version="1.0" xmlns="http://www.w3.org/2000/svg"
 width="512.000000pt" height="512.000000pt" viewBox="0 0 512.000000 512.000000"
 preserveAspectRatio="xMidYMid meet">

<g transform="translate(0.000000,512.000000) scale(0.100000,-0.100000)"
fill="#000000" stroke="none">
<path d="M2370 5113 c-371 -35 -653 -114 -961 -269 -245 -122 -444 -268 -655
-478 -224 -225 -366 -423 -500 -701 -158 -326 -237 -650 -251 -1020 -15 -426
73 -832 263 -1214 133 -269 271 -459 488 -677 221 -220 412 -357 681 -489 188
-92 309 -137 500 -185 500 -126 1003 -101 1489 71 133 47 373 163 486 235 602
382 1023 989 1159 1669 38 188 46 277 46 505 0 228 -8 317 -46 505 -132 662
-535 1256 -1109 1636 -131 87 -411 226 -550 274 -204 70 -413 115 -625 135
-102 9 -333 11 -415 3z m510 -358 c483 -73 899 -283 1245 -630 349 -348 556
-760 632 -1255 24 -157 24 -463 0 -620 -59 -386 -199 -720 -430 -1030 -91
-122 -305 -336 -427 -427 -404 -301 -841 -447 -1340 -447 -498 0 -937 147
-1338 447 -462 347 -768 866 -858 1457 -25 159 -25 464 -1 620 115 743 559
1353 1222 1680 256 126 490 190 820 224 78 8 372 -4 475 -19z"/>
<path d="M2507 4086 c-47 -17 -81 -48 -101 -91 -14 -29 -16 -122 -16 -752 l0
-720 23 -41 c17 -32 122 -121 462 -393 242 -193 452 -357 467 -365 15 -8 49
-14 76 -14 121 0 199 131 145 244 -12 25 -124 121 -424 361 l-409 327 -2 672
-3 673 -28 36 c-48 63 -122 88 -190 63z"/>
</g>
</svg>
