<?xml version="1.0" standalone="no"?>
<!DOCTYPE svg PUBLIC "-//W3C//DTD SVG 20010904//EN"
 "http://www.w3.org/TR/2001/REC-SVG-20010904/DTD/svg10.dtd">
<svg version="1.0" xmlns="http://www.w3.org/2000/svg"
 width="100.000000pt" height="100.000000pt" viewBox="0 0 100.000000 100.000000"
 preserveAspectRatio="xMidYMid meet">

<g transform="translate(0.000000,100.000000) scale(0.100000,-0.100000)"
fill="#000000" stroke="none">
<path d="M386 944 c-224 -54 -376 -287 -338 -516 62 -369 512 -515 775 -251
180 180 180 466 -2 648 -115 115 -272 158 -435 119z m219 -39 c209 -54 344
-261 308 -471 -12 -69 -47 -150 -85 -197 l-23 -27 -65 25 c-104 41 -130 54
-130 65 0 5 9 10 20 10 30 0 98 30 104 46 3 8 1 26 -4 40 -6 14 -10 78 -10
143 0 187 -32 255 -130 282 -120 33 -214 1 -263 -89 -26 -47 -37 -112 -51
-287 -2 -27 -7 -60 -11 -72 -9 -27 27 -52 85 -60 54 -8 47 -23 -26 -51 -32
-12 -74 -30 -93 -39 l-33 -17 -24 29 c-71 88 -106 220 -87 331 43 247 278 401
518 339z m-40 -119 c69 -19 71 -20 92 -59 12 -24 18 -73 23 -192 4 -88 4 -164
0 -168 -4 -5 -32 -14 -61 -21 -44 -9 -55 -16 -57 -33 -4 -31 33 -66 93 -88 28
-10 66 -24 85 -32 l34 -14 -44 -29 c-71 -47 -134 -65 -230 -65 -96 0 -159 18
-230 65 l-44 29 34 14 c19 8 57 22 85 32 60 22 98 57 93 87 -2 18 -15 25 -68
38 -48 11 -64 19 -61 30 3 8 8 67 13 130 14 181 37 237 111 270 51 24 61 24
132 6z"/>
</g>
</svg>
